# xmcd
#
# Track frame offsets:
#	150
#	12261
#	24936
#	36727
#	52874
#	68862
#	81252
#	98238
#	111747
#	127416
#	144655
#	158756
#	174383
#	191746
#
# Disc length: 2780 seconds
#
# Revision: 0
# Processed by: cddbd v1.5.2PL0 Copyright (c) Steve Scherf et al.
# Submitted via: dBpowerAMP V4.0
#
DISCID=c90ada0e
DTITLE=Cesar and Marcello - Vol. 03 Socadão
DYEAR=2006
DGENRE=Sertanejo
TTITLE0=Espetinho da Morena
TTITLE1=O Trem Tá Feio
TTITLE2=Tô Que Tô
TTITLE3=Ai Amor
TTITLE4=Vida Boa
TTITLE5=Pagode em Goiás
TTITLE6=Desliga Tudo
TTITLE7=Traveco
TTITLE8=Sigo Te Amando
TTITLE9=Cobertor e Vinho
TTITLE10=Flash Back
TTITLE11=Fogo de Morro Acima
TTITLE12=Seu Lugar é Aqui
TTITLE13=Bad Boy
EXTD=Cesar e Marcello Vol. 03 Socadão
EXTT0=
EXTT1=
EXTT2=
EXTT3=
EXTT4=
EXTT5=
EXTT6=
EXTT7=
EXTT8=
EXTT9=
EXTT10=
EXTT11=
EXTT12=
EXTT13=
PLAYORDER=
